<?xml version="1.0" encoding="utf-8"?>
<!-- Generator: Adobe Illustrator 19.0.0, SVG Export Plug-In . SVG Version: 6.00 Build 0)  -->
<svg version="1.1" id="Layer_1" xmlns="http://www.w3.org/2000/svg" xmlns:xlink="http://www.w3.org/1999/xlink" x="0px" y="0px"
	 viewBox="-70 245.6 631 70.4" style="enable-background:new -70 245.6 631 70.4;" xml:space="preserve">
<rect x="234" y="286.2" width="7.3" height="26.7"/>
<rect x="134.5" y="255.5" width="7.3" height="40.1"/>
<rect x="162.8" y="255.5" width="7.3" height="40.1"/>
<polygon points="241.3,289.1 234,287.2 249.3,255.5 257.2,255.5 "/>
<polygon points="234,289.1 241.3,287.2 226,255.5 218,255.5 "/>
<path d="M170,293.9c0,13.1-6.6,19.4-17.7,19.4v-7.7c3.9,0,10.5-1.9,10.5-11.6C162.8,285.2,170,284.9,170,293.9z"/>
<rect x="350.7" y="269" width="7.3" height="26.3"/>
<path d="M134.5,293.9c0,13.1,6.6,19.4,17.7,19.4v-7.7c-3.9,0-10.5-1.9-10.5-11.6C141.8,285.2,134.5,284.9,134.5,293.9z"/>
<rect x="-69.9" y="289" width="121.4" height="6.6"/>
<rect x="-32.4" y="256" width="42" height="6.4"/>
<rect x="-17.9" y="305.6" width="62.6" height="7.3"/>
<rect x="325" y="255.5" width="7.8" height="57.5"/>
<path d="M340.5,255.5c8.8,0,17.5,6.4,17.5,13.9c0,8.1-7.3,7.9-7.3,0.8c0-8.9-9.9-8.9-13.2-8.9c-2.4,0-4.9,0-4.9,0v-5.8
	C332.8,255.5,336.7,255.5,340.5,255.5z"/>
<path d="M358,295.4c0,9.3-1.9,17.5-19.6,17.5c-2.4,0-5.6,0-5.6,0v-7c0,0,2.9,0,5.8,0c5.5,0,12.1-1.2,12.1-10.3S358,286.1,358,295.4z
	"/>
<rect x="89.5" y="255.5" width="7.8" height="57.5"/>
<path d="M105,255.5c8.8,0,15.5,6.4,15.5,13.9c0,8.1-7.3,15.2-19.4,15.2c-2.4,0-3.9,0-3.9,0v-5.9c0,0,2.9,0,5.8,0s10.2-1.4,10.2-8.5
	c0-6.8-7.9-8.9-11.2-8.9c-2.4,0-4.9,0-4.9,0v-5.8C97.3,255.5,101.1,255.5,105,255.5z"/>
<path d="M109.4,278.3c7.8,0,14.1,8,14.1,17.3s-2.9,17.3-20.6,17.3c-2.4,0-5.6,0-5.6,0v-7c0,0,2.9,0,5.8,0c5.5,0,12.6-1.2,12.6-10.3
	s-9.3-15.6-13.1-15.6C101.1,280,105.5,278.3,109.4,278.3z"/>
<g>
	<rect x="381.4" y="255.5" width="7.8" height="57.5"/>
	<rect x="371.7" y="255.5" width="27.2" height="6.3"/>
	<rect x="371.7" y="306.6" width="27.2" height="6.3"/>
</g>
<polygon points="47.4,313 39.4,313 45.4,289 53.4,289 "/>
<polygon points="-19.5,313 -11.5,313 -17.5,289 -25.5,289 "/>
<rect x="515.5" y="254.5" width="7.8" height="57.5"/>
<path d="M531,254.5c8.8,0,15.5,6.4,15.5,13.9c0,8.1-7.3,15.2-19.4,15.2c-2.4,0-3.9,0-3.9,0v-5.9c0,0,2.9,0,5.8,0
	c2.9,0,10.2-1.4,10.2-8.5c0-6.8-7.9-8.9-11.2-8.9c-2.4,0-4.9,0-4.9,0v-5.8C523.3,254.5,527.1,254.5,531,254.5z"/>
<path d="M551,308.8l-4.2,5.7c-2.2-1.1-9.6-5.4-9.6-15.5c0-4.2,0.4-6.6-1-10.4c-1.5-3.8-7-7.3-7.9-6.9c-1,0.4,4.4-4,4.4-4
	s11.8,2.3,11.8,15.2C544.6,306,545.9,305.6,551,308.8z"/>
<rect x="415.4" y="255.5" width="7.8" height="57.5"/>
<rect x="446.1" y="255.5" width="7.8" height="57.5"/>
<path d="M-17.9,277.9l51.6,0.4c15.6,0,17-11.4,17.1-15.1c0.1-3.9-0.6-8.1-5.1-12.1c-8.3-7.5-17.3-4.3-17.3-4.3l-0.5,7.2
	c0,0,8.3-1.1,12.4,2.5c2.8,2.5,3,4.8,3,6.8c0,1.7,0.3,8.4-12.4,8.4c-3.6,0-48.8-0.4-48.8-0.4S-17.9,277.9-17.9,277.9z"/>
<path d="M198.6,254.8c9.9,0,14.6,7.9,14.6,7.9l-6,4c0,0-1.6-4.8-9.4-4.8s-8.3,4.9-8.3,6.1s-0.2,3.8,4.7,8.2
	c5.3,4.8,10.1,9.2,12.3,11.1c2.2,1.9,6.3,5.1,6.3,12.6c0,5.1-5.3,14.3-15.1,14.3c-10.4,0-16.7-8.3-16.7-8.3l4.3-5.4
	c0,0,6.7,6.8,11.7,6.8c5.6,0,8.4-3.5,8.4-7.9c0-4.1-1.9-5.3-4.7-7.8c-2.8-2.3-10.7-9.5-13.8-12.5c-5.6-5.6-5-9.5-5-10.8
	C181.8,260.4,188.8,254.8,198.6,254.8z"/>
<rect x="471.8" y="255.3" width="7.8" height="57.5"/>
<rect x="474.2" y="255.3" width="27.2" height="6.3"/>
<rect x="474.2" y="306.4" width="27.2" height="6.3"/>
<rect x="474.2" y="277.7" width="18.4" height="6.3"/>
<polygon points="424.6,255.5 452,313 445.7,313 417.8,255.5 "/>
</svg>
