<?xml version="1.0" encoding="utf-8"?>
<!-- Generator: Adobe Illustrator 19.0.0, SVG Export Plug-In . SVG Version: 6.00 Build 0)  -->
<svg version="1.1" id="Layer_1" xmlns="http://www.w3.org/2000/svg" xmlns:xlink="http://www.w3.org/1999/xlink" x="0px" y="0px"
	 viewBox="-70 245.6 818.9 70.4" style="enable-background:new -70 245.6 818.9 70.4;" xml:space="preserve">
<rect x="428.3" y="255" width="7.8" height="57.5"/>
<rect x="234" y="285.7" width="7.3" height="26.7"/>
<rect x="134.5" y="255" width="7.3" height="40.1"/>
<rect x="162.8" y="255" width="7.3" height="40.1"/>
<polygon points="241.3,288.6 234,286.7 249.3,255 257.3,255 "/>
<polygon points="234,288.6 241.3,286.7 226,255 218,255 "/>
<rect x="376.9" y="255" width="7.8" height="57.5"/>
<path d="M170,293.4c0,13.1-6.6,19.4-17.7,19.4v-7.7c3.9,0,10.5-1.9,10.5-11.6C162.8,284.7,170,284.4,170,293.4z"/>
<path d="M134.5,293.4c0,13.1,6.6,19.4,17.7,19.4v-7.7c-3.9,0-10.5-1.9-10.5-11.6C141.8,284.7,134.5,284.4,134.5,293.4z"/>
<rect x="-69.9" y="288.5" width="121.4" height="6.6"/>
<rect x="-32.4" y="255.5" width="42" height="6.4"/>
<rect x="-17.9" y="305.1" width="62.6" height="7.3"/>
<rect x="325" y="255" width="7.8" height="57.5"/>
<path d="M340.5,255c8.8,0,15.5,6.4,15.5,13.9c0,8.1-7.3,15.2-19.4,15.2c-2.4,0-3.9,0-3.9,0v-5.9c0,0,2.9,0,5.8,0
	c2.9,0,10.2-1.4,10.2-8.5c0-6.8-7.9-8.9-11.2-8.9c-2.4,0-4.9,0-4.9,0V255C332.8,255,336.7,255,340.5,255z"/>
<path d="M392.4,255c8.8,0,15.5,6.4,15.5,13.9c0,8.1-7.3,15.2-19.4,15.2c-2.4,0-3.9,0-3.9,0v-5.9c0,0,2.9,0,5.8,0
	c2.9,0,10.2-1.4,10.2-8.5c0-6.8-7.9-8.9-11.2-8.9c-2.4,0-4.9,0-4.9,0V255C384.7,255,388.5,255,392.4,255z"/>
<path d="M344.9,277.8c7.8,0,14.1,8,14.1,17.3c0,9.3-2.9,17.3-20.6,17.3c-2.4,0-5.6,0-5.6,0v-7c0,0,2.9,0,5.8,0
	c5.5,0,12.6-1.2,12.6-10.3s-9.3-15.6-13.1-15.6C336.7,279.5,341,277.8,344.9,277.8z"/>
<rect x="89.5" y="255" width="7.8" height="57.5"/>
<path d="M105,255c8.8,0,15.5,6.4,15.5,13.9c0,8.1-7.3,15.2-19.4,15.2c-2.4,0-3.9,0-3.9,0v-5.9c0,0,2.9,0,5.8,0
	c2.9,0,10.2-1.4,10.2-8.5c0-6.8-7.9-8.9-11.2-8.9c-2.4,0-4.9,0-4.9,0V255C97.3,255,101.1,255,105,255z"/>
<path d="M109.4,277.8c7.8,0,14.1,8,14.1,17.3c0,9.3-2.9,17.3-20.6,17.3c-2.4,0-5.6,0-5.6,0v-7c0,0,2.9,0,5.8,0
	c5.5,0,12.6-1.2,12.6-10.3s-9.3-15.6-13.1-15.6C101.1,279.5,105.5,277.8,109.4,277.8z"/>
<rect x="430.7" y="255" width="27.2" height="6.3"/>
<rect x="430.7" y="306.1" width="27.2" height="6.3"/>
<rect x="430.7" y="277.4" width="18.4" height="6.3"/>
<rect x="583" y="255" width="27.2" height="6.3"/>
<rect x="724.6" y="255" width="7.8" height="57.5"/>
<rect x="724.6" y="255" width="24.3" height="6.3"/>
<rect x="708.2" y="255" width="24.3" height="6.3"/>
<polygon points="488.6,261.6 494,261.6 492.5,258.2 488.6,258.2 "/>
<polygon points="633.7,261.3 639.1,261.3 637.6,257.9 633.7,257.9 "/>
<polygon points="478.8,312.5 470.7,312.5 483.8,255 491.8,255 "/>
<polygon points="47.4,312.5 39.4,312.5 45.4,288.5 53.4,288.5 "/>
<polygon points="-19.5,312.5 -11.5,312.5 -17.5,288.5 -25.5,288.5 "/>
<polygon points="511.7,312.5 503.7,312.5 490.1,255 498.2,255 "/>
<path d="M412.4,309.3l-4.2,5.7c-2.2-1.1-9.6-5.4-9.6-15.5c0-4.2,0.4-6.6-1-10.4c-1.5-3.8-7-7.3-7.9-6.9c-1,0.4,4.4-4,4.4-4
	s11.8,2.3,11.8,15.2C406,306.5,407.3,306.1,412.4,309.3z"/>
<path d="M565.2,309.3l-4.2,5.7c-2.2-1.1-9.6-5.4-9.6-15.5c0-4.2,0.4-6.6-1-10.4c-1.5-3.8-7-7.3-7.9-6.9c-1,0.4,4.4-4,4.4-4
	s11.8,2.3,11.8,15.2C558.8,306.5,560.1,306.1,565.2,309.3z"/>
<rect x="527.7" y="255" width="7.8" height="57.5"/>
<rect x="581.1" y="255" width="7.8" height="57.5"/>
<rect x="583" y="277.4" width="19.9" height="6.3"/>
<rect x="475.8" y="291.7" width="29.6" height="6.3"/>
<polygon points="623.8,312.5 615.8,312.5 628.9,255 636.9,255 "/>
<polygon points="656.7,312.5 648.7,312.5 635.2,255 643.2,255 "/>
<rect x="620.9" y="291.7" width="29.6" height="6.3"/>
<path d="M551,255h8.2c0,0,0,4.6,0,6.8c0,9.1-13.5,22.5-24.3,22.5c-1.9,0.4-9.2-7.4-0.5-7.8c8.2-0.4,16.5-8.9,16.5-16.4
	C551,255,551,255,551,255z"/>
<path d="M-17.9,277.4l51.6,0.4c15.6,0,17-11.4,17.1-15.1c0.1-3.9-0.6-8.1-5.1-12.1c-8.3-7.5-17.3-4.3-17.3-4.3l-0.5,7.2
	c0,0,8.3-1.1,12.4,2.5c2.8,2.5,3,4.8,3,6.8c0,1.7,0.3,8.4-12.4,8.4c-3.6,0-48.8-0.4-48.8-0.4V277.4z"/>
<path d="M198.6,254.3c9.9,0,14.6,7.9,14.6,7.9l-6,4c0,0-1.6-4.8-9.4-4.8s-8.3,4.9-8.3,6.1s-0.2,3.8,4.7,8.2
	c5.3,4.8,10.1,9.2,12.3,11.1c2.2,1.9,6.3,5.1,6.3,12.6c0,5.1-5.3,14.3-15.1,14.3c-10.4,0-16.7-8.3-16.7-8.3l4.3-5.4
	c0,0,6.7,6.8,11.7,6.8c5.6,0,8.4-3.5,8.4-7.9c0-4.1-1.9-5.3-4.7-7.8c-2.8-2.3-10.7-9.5-13.8-12.5c-5.6-5.6-5-9.5-5-10.8
	C181.8,259.9,188.8,254.3,198.6,254.3z"/>
<path d="M683.9,254.3c9.9,0,14.6,7.9,14.6,7.9l-6,4c0,0-1.6-4.8-9.4-4.8s-8.3,4.9-8.3,6.1s-0.2,3.8,4.7,8.2
	c5.3,4.8,10.1,9.2,12.3,11.1c2.2,1.9,6.3,5.1,6.3,12.6c0,5.1-5.3,14.3-15.1,14.3c-10.4,0-16.7-8.3-16.7-8.3l4.3-5.4
	c0,0,6.7,6.8,11.7,6.8c5.6,0,8.4-3.5,8.4-7.9c0-4.1-1.9-5.3-4.7-7.8c-2.8-2.3-10.7-9.5-13.8-12.5c-5.6-5.6-5-9.5-5-10.8
	C667.1,259.9,674.1,254.3,683.9,254.3z"/>
</svg>
